<svg id="Camada_1" data-name="Camada 1" xmlns="http://www.w3.org/2000/svg" viewBox="0 0 969.23 433.88"><polygon points="969.23 0 925.69 62.23 918.63 72.32 872.01 139 868.07 144.64 842.77 180.78 818.32 215.78 817.47 216.96 766.91 289.25 764.6 292.55 726.67 346.78 716.34 361.56 691.2 397.47 665.75 433.88 609.27 433.88 583.82 397.47 558.68 361.56 508.11 289.25 457.55 216.96 433.91 183.18 433.91 180.78 539.62 180.78 564.92 216.96 615.48 289.25 637.51 320.72 659.53 289.25 672.99 270.01 710.1 216.96 711.74 216.96 710.92 215.78 735.4 180.78 760.67 144.64 764.6 139 811.26 72.32 818.32 62.26 861.86 0 969.23 0" fill="#fff"/><polygon points="541.32 433.88 433.91 433.88 383.32 361.56 381.26 358.63 361.59 330.48 337.78 296.46 332.75 289.25 289.27 227.11 282.19 216.96 256.89 180.78 364.26 180.78 389.56 216.96 427.19 270.7 433.91 280.34 440.12 289.25 541.32 433.88" fill="#fff"/><path d="M132.25,503.84A144.65,144.65,0,0,0,272.34,684.62h122l16,22.82L417,717l28,40H272.34A216.41,216.41,0,0,1,127.7,701.71a225.74,225.74,0,0,1-17.08-17.09A217.14,217.14,0,0,1,58.41,503.84a211.55,211.55,0,0,1,9.34-36.14,216.13,216.13,0,0,1,42.87-72.32,225.74,225.74,0,0,1,17.08-17.09A217,217,0,0,1,162.39,353a213.35,213.35,0,0,1,33.21-15.9c1.45-.58,2.94-1.13,4.42-1.64a216.53,216.53,0,0,1,72.32-12.36h196.2l20.76,29.66,29.84,42.66H272.34A144.27,144.27,0,0,0,204,412.5c-1.33.72-2.66,1.48-4,2.24a144.94,144.94,0,0,0-67.77,89.1Z" transform="translate(-55.39 -323.06)" fill="#fff"/></svg>